<svg xmlns="http://www.w3.org/2000/svg" width="108.069" height="55" viewBox="0 0 108.069 55">
  <g id="グループ_7" data-name="グループ 7" transform="translate(-154.028 -288.5)">
    <g id="グループ_6" data-name="グループ 6" transform="translate(156.8 307)">
      <g id="グループ_5" data-name="グループ 5" transform="translate(0 0)">
        <path id="パス_51" data-name="パス 51" d="M167.036,346.314h1.542v7.838a.833.833,0,0,1-.864.859h-1.933l-.6-1.761h1.69c.16,0,.169-.108.169-.2Zm-1.771.52h1.5V352.8h-1.5Zm-4.364-.356h4.119v1.642h-1.339v1.457h1.448v1.649h-1.448v3.786h-1.551v-3.786h-1.44v-1.649h1.44V348.12H160.9Z" transform="translate(-160.25 -336.944)" fill="#fff"/>
        <path id="パス_52" data-name="パス 52" d="M159.779,326.882l.457,1.221v.5h2.235v-1.724Zm6.255,2.711h.815V329.3h-.815Zm0-1.224h.815v-.3h-.815Zm-.712,3.785h.306v-.387h-.306Zm-.474-2.854h-.685v.293h.685Zm0-1.226h-.685v.3h.685Zm-1.983-1.2h5.271v5.811c0,.377-.1.847-.7.847h-1.178l-.076-.461H164.3v-2.256h2.331v1.4c.067,0,.152-.009.178-.047a.418.418,0,0,0,.043-.239V330.6H164.16v.075a7.133,7.133,0,0,1-.551,2.993l-1.136-1.245v.415c.077.257.263.913,1.416.913h4.47v1.628h-4.292a3.749,3.749,0,0,1-2.214-.806l-1.467,1.019v-1.739l.563-.478v-1.76h-.712v-1.557h2.236v2.339a5.715,5.715,0,0,0,.39-2.2Z" transform="translate(-159.779 -326.877)" fill="#fff"/>
      </g>
    </g>
    <path id="パス_53" data-name="パス 53" d="M264.418,292.376a.926.926,0,1,0,.893.926.91.91,0,0,0-.893-.926m0,3.638a2.714,2.714,0,1,1,2.612-2.712,2.664,2.664,0,0,1-2.612,2.712M253.806,290l-1.711,4.257,7.029,3.041s-1.893,3.274-7.345,2.759l1.711,4.726a11.779,11.779,0,0,0,11.087-8.281,3.164,3.164,0,0,1-3.245-3.369Zm-16.743,10.582.331,1.318a3.773,3.773,0,0,0,.461-1.56Zm2.64,1.769-2.274-.312.561,2.229-3.065.8-.931-3.537-1.908.59-.676-3.136,1.8-.448-.534-2.03,3.2-.655.478,1.9,4.434-1.108a11.569,11.569,0,0,1-1.081,5.708M191.563,297a7.638,7.638,0,0,1-.737,3.075l-.735-2.526Zm3.7-5.848-6.439,2.033-.906-3.11-4.866,1.732.974,2.893-2.687.849,1.712,4.632,2.5-.936,2.048,6.081,4.281-1.636-1.032-3.545,3.645.832a18.8,18.8,0,0,0,.766-9.825m18.824-.083.452,1.685,3.515-.609c.944,10.153-6.852,12.867-6.852,12.867l-2.432-3.7a6.511,6.511,0,0,0,4.731-5.379l-1.533.141a5.63,5.63,0,0,1-3.334,3.6l-2.163-3.322a4.2,4.2,0,0,0,1.894-4.117Zm2.479-2.151.856,2.714,2.073-.421-.811-2.713Zm-1.668,3.321-.722-2.806,1.939-.422.855,2.806Zm37.653,4.07a14.825,14.825,0,0,1-9.149,8.468l-2.3-4.3a13.985,13.985,0,0,0,8.923-7.814Zm-10.006-6.035-2.884,3.37a12,12,0,0,1,4.417,3.7l2.974-2.948a15.785,15.785,0,0,0-4.506-4.117m-9.012-1.356,1.713,2.526-1.848,1.264-1.848-2.526Zm-4.415,2.853,1.847,2.527,1.847-1.264-1.711-2.524Zm-10.1,7.861s7.841,1.216,10.005-6.924l2.837,3.789a13.557,13.557,0,0,1-10.815,8.374Zm1.668-6.5-2.119,3.322a12.007,12.007,0,0,1,4.281,2.666l2.254-3.228a16.565,16.565,0,0,0-4.416-2.76m6.985-.983-2.254,3.229a12,12,0,0,0-4.282-2.666l2.119-3.321a16.616,16.616,0,0,1,4.417,2.758m-20.573,6.69c-3.243,6.083-10.858,5.8-10.858,5.8l-.407-5.1a9.8,9.8,0,0,0,8.923-4.444Zm-3.425-3.928-3.83,2.665a17.758,17.758,0,0,0-3.694-3.975l3.784-2.947a22.673,22.673,0,0,1,3.739,4.257" transform="translate(-14.143)" fill="#fff"/>
    <path id="パス_54" data-name="パス 54" d="M232.8,328.326v-1.331H222.613l-.014,23.834a2.262,2.262,0,0,1-.7,1.63,2.63,2.63,0,0,1-3.614,0,2.261,2.261,0,0,1-.7-1.629l0-23.835H207.282v26.218a9.558,9.558,0,0,0,3.275,6.865c1.692,1.534,4.776,3.36,9.851,3.36,4.98,0,7.918-2.009,9.507-3.695a10.519,10.519,0,0,0,2.886-6.473C232.8,353.232,232.8,353.22,232.8,328.326Z" transform="translate(-27.582 -19.938)" fill="#fff"/>
    <path id="パス_55" data-name="パス 55" d="M167.286,326.929l0,23.678a2.056,2.056,0,0,1-2.1,1.933,2.437,2.437,0,0,1-2.643-1.965c-.043-.177-.586-3.727-.586-3.727l-7.928,1.811.47,3.353a14.422,14.422,0,0,0,1.915,5.389,11.309,11.309,0,0,0,10.23,5.511h.014c10.581,0,11.045-9.329,11.059-9.727V326.929Z" transform="translate(0 -19.904)" fill="#fff"/>
    <path id="パス_56" data-name="パス 56" d="M280.08,327.013s-1.622,4.289-2.39,6.214c-.692-1.916-2.152-6.214-2.152-6.214H264.105v35.4h9.81V344.948c1.267,2.989,3.72,9.041,3.72,9.041s2.347-5.954,3.559-8.882v17.266h9.983V327.013Z" transform="translate(-57.013 -19.947)" fill="#fff"/>
    <path id="パス_57" data-name="パス 57" d="M346.379,330.649A12.947,12.947,0,0,0,337.313,327l-13.262,0v35.424h10.865V352.013h2.646a12.73,12.73,0,0,0,12.6-12.5A12.259,12.259,0,0,0,346.379,330.649Zm-6.358,11.95a4.419,4.419,0,0,1-3.231,1.074l-1.876,0v-8.285l1.88,0a4.408,4.408,0,0,1,3.217,1.073,4.231,4.231,0,0,1,.011,6.132Z" transform="translate(-88.061 -19.941)" fill="#fff"/>
  </g>
</svg>
